<?xml version="1.0" encoding="UTF-8" standalone="no"?>
<!DOCTYPE svg PUBLIC "-//W3C//DTD SVG 1.1//EN"
 "http://www.w3.org/Graphics/SVG/1.1/DTD/svg11.dtd">
<!-- Generated by graphviz version 2.38.0 (20140413.2041)
 -->
<!-- Title: wiki Pages: 1 -->
<svg width="408pt" height="332pt"
 viewBox="0.00 0.00 408.08 332.00" xmlns="http://www.w3.org/2000/svg" xmlns:xlink="http://www.w3.org/1999/xlink">
<g id="graph0" class="graph" transform="scale(1 1) rotate(0) translate(4 328)">
<title>wiki</title>
<polygon fill="white" stroke="none" points="-4,4 -4,-328 404.083,-328 404.083,4 -4,4"/>
<!-- U -->
<g id="node1" class="node"><title>U</title>
<ellipse fill="none" stroke="black" cx="107.24" cy="-306" rx="79.0865" ry="18"/>
<text text-anchor="middle" x="107.24" y="-302.3" font-family="Times,serif" font-size="14.00">User Accounts</text>
</g>
<!-- A -->
<g id="node2" class="node"><title>A</title>
<ellipse fill="none" stroke="black" cx="107.24" cy="-234" rx="107.482" ry="18"/>
<text text-anchor="middle" x="107.24" y="-230.3" font-family="Times,serif" font-size="14.00">Authorship Tracking</text>
</g>
<!-- U&#45;&gt;A -->
<g id="edge3" class="edge"><title>U&#45;&gt;A</title>
<path fill="none" stroke="black" d="M107.24,-287.697C107.24,-279.983 107.24,-270.712 107.24,-262.112"/>
<polygon fill="black" stroke="black" points="110.741,-262.104 107.24,-252.104 103.741,-262.104 110.741,-262.104"/>
</g>
<!-- H -->
<g id="node3" class="node"><title>H</title>
<ellipse fill="none" stroke="black" cx="211.24" cy="-162" rx="71.4873" ry="18"/>
<text text-anchor="middle" x="211.24" y="-158.3" font-family="Times,serif" font-size="14.00">Page History</text>
</g>
<!-- A&#45;&gt;H -->
<g id="edge4" class="edge"><title>A&#45;&gt;H</title>
<path fill="none" stroke="black" d="M131.887,-216.411C145.946,-206.948 163.735,-194.975 178.905,-184.764"/>
<polygon fill="black" stroke="black" points="181.145,-187.475 187.487,-178.988 177.236,-181.668 181.145,-187.475"/>
</g>
<!-- F -->
<g id="node6" class="node"><title>F</title>
<ellipse fill="none" stroke="black" cx="211.24" cy="-90" rx="92.8835" ry="18"/>
<text text-anchor="middle" x="211.24" y="-86.3" font-family="Times,serif" font-size="14.00">Markup&#45;to&#45;HTML</text>
</g>
<!-- H&#45;&gt;F -->
<g id="edge5" class="edge"><title>H&#45;&gt;F</title>
<path fill="none" stroke="black" d="M211.24,-143.697C211.24,-135.983 211.24,-126.712 211.24,-118.112"/>
<polygon fill="black" stroke="black" points="214.741,-118.104 211.24,-108.104 207.741,-118.104 214.741,-118.104"/>
</g>
<!-- E -->
<g id="node4" class="node"><title>E</title>
<ellipse fill="none" stroke="black" cx="316.24" cy="-306" rx="63.8893" ry="18"/>
<text text-anchor="middle" x="316.24" y="-302.3" font-family="Times,serif" font-size="14.00">Text Editor</text>
</g>
<!-- M -->
<g id="node5" class="node"><title>M</title>
<ellipse fill="none" stroke="black" cx="316.24" cy="-234" rx="83.6854" ry="18"/>
<text text-anchor="middle" x="316.24" y="-230.3" font-family="Times,serif" font-size="14.00">Markup Format</text>
</g>
<!-- E&#45;&gt;M -->
<g id="edge1" class="edge"><title>E&#45;&gt;M</title>
<path fill="none" stroke="black" d="M316.24,-287.697C316.24,-279.983 316.24,-270.712 316.24,-262.112"/>
<polygon fill="black" stroke="black" points="319.741,-262.104 316.24,-252.104 312.741,-262.104 319.741,-262.104"/>
</g>
<!-- M&#45;&gt;H -->
<g id="edge2" class="edge"><title>M&#45;&gt;H</title>
<path fill="none" stroke="black" d="M291.887,-216.765C277.707,-207.311 259.638,-195.265 244.199,-184.972"/>
<polygon fill="black" stroke="black" points="245.723,-181.782 235.461,-179.147 241.84,-187.607 245.723,-181.782"/>
</g>
<!-- O -->
<g id="node7" class="node"><title>O</title>
<ellipse fill="none" stroke="black" cx="211.24" cy="-18" rx="106.681" ry="18"/>
<text text-anchor="middle" x="211.24" y="-14.3" font-family="Times,serif" font-size="14.00">Web Page (CSS etc.)</text>
</g>
<!-- F&#45;&gt;O -->
<g id="edge6" class="edge"><title>F&#45;&gt;O</title>
<path fill="none" stroke="black" d="M211.24,-71.6966C211.24,-63.9827 211.24,-54.7125 211.24,-46.1124"/>
<polygon fill="black" stroke="black" points="214.741,-46.1043 211.24,-36.1043 207.741,-46.1044 214.741,-46.1043"/>
</g>
</g>
</svg>
