<?xml version="1.0" encoding="UTF-8" standalone="no"?>
<!DOCTYPE svg PUBLIC "-//W3C//DTD SVG 1.1//EN"
 "http://www.w3.org/Graphics/SVG/1.1/DTD/svg11.dtd">
<!-- Generated by graphviz version 2.38.0 (20140413.2041)
 -->
<!-- Title: wiki Pages: 1 -->
<svg width="408pt" height="188pt"
 viewBox="0.00 0.00 408.08 188.00" xmlns="http://www.w3.org/2000/svg" xmlns:xlink="http://www.w3.org/1999/xlink">
<g id="graph0" class="graph" transform="scale(1 1) rotate(0) translate(4 184)">
<title>wiki</title>
<polygon fill="white" stroke="none" points="-4,4 -4,-184 404.083,-184 404.083,4 -4,4"/>
<!-- U -->
<g id="node1" class="node"><title>U</title>
<ellipse fill="none" stroke="black" cx="107.24" cy="-162" rx="79.0865" ry="18"/>
<text text-anchor="middle" x="107.24" y="-158.3" font-family="Times,serif" font-size="14.00">User Accounts</text>
</g>
<!-- A -->
<g id="node2" class="node"><title>A</title>
<ellipse fill="none" stroke="black" cx="107.24" cy="-90" rx="107.482" ry="18"/>
<text text-anchor="middle" x="107.24" y="-86.3" font-family="Times,serif" font-size="14.00">Authorship Tracking</text>
</g>
<!-- U&#45;&gt;A -->
<g id="edge3" class="edge"><title>U&#45;&gt;A</title>
<path fill="none" stroke="black" d="M107.24,-143.697C107.24,-135.983 107.24,-126.712 107.24,-118.112"/>
<polygon fill="black" stroke="black" points="110.741,-118.104 107.24,-108.104 103.741,-118.104 110.741,-118.104"/>
</g>
<!-- H -->
<g id="node3" class="node"><title>H</title>
<ellipse fill="none" stroke="black" cx="211.24" cy="-18" rx="71.4873" ry="18"/>
<text text-anchor="middle" x="211.24" y="-14.3" font-family="Times,serif" font-size="14.00">Page History</text>
</g>
<!-- A&#45;&gt;H -->
<g id="edge4" class="edge"><title>A&#45;&gt;H</title>
<path fill="none" stroke="black" d="M131.887,-72.411C145.946,-62.9479 163.735,-50.9747 178.905,-40.764"/>
<polygon fill="black" stroke="black" points="181.145,-43.4755 187.487,-34.9881 177.236,-37.6684 181.145,-43.4755"/>
</g>
<!-- E -->
<g id="node4" class="node"><title>E</title>
<ellipse fill="none" stroke="black" cx="316.24" cy="-162" rx="63.8893" ry="18"/>
<text text-anchor="middle" x="316.24" y="-158.3" font-family="Times,serif" font-size="14.00">Text Editor</text>
</g>
<!-- M -->
<g id="node5" class="node"><title>M</title>
<ellipse fill="none" stroke="black" cx="316.24" cy="-90" rx="83.6854" ry="18"/>
<text text-anchor="middle" x="316.24" y="-86.3" font-family="Times,serif" font-size="14.00">Markup Format</text>
</g>
<!-- E&#45;&gt;M -->
<g id="edge1" class="edge"><title>E&#45;&gt;M</title>
<path fill="none" stroke="black" d="M316.24,-143.697C316.24,-135.983 316.24,-126.712 316.24,-118.112"/>
<polygon fill="black" stroke="black" points="319.741,-118.104 316.24,-108.104 312.741,-118.104 319.741,-118.104"/>
</g>
<!-- M&#45;&gt;H -->
<g id="edge2" class="edge"><title>M&#45;&gt;H</title>
<path fill="none" stroke="black" d="M291.887,-72.7646C277.707,-63.3113 259.638,-51.265 244.199,-40.9721"/>
<polygon fill="black" stroke="black" points="245.723,-37.7822 235.461,-35.1473 241.84,-43.6065 245.723,-37.7822"/>
</g>
</g>
</svg>
