<?xml version="1.0" encoding="UTF-8" standalone="no"?>
<!DOCTYPE svg PUBLIC "-//W3C//DTD SVG 1.1//EN"
 "http://www.w3.org/Graphics/SVG/1.1/DTD/svg11.dtd">
<!-- Generated by graphviz version 2.38.0 (20140413.2041)
 -->
<!-- Title: wiki Pages: 1 -->
<svg width="221pt" height="188pt"
 viewBox="0.00 0.00 221.18 188.00" xmlns="http://www.w3.org/2000/svg" xmlns:xlink="http://www.w3.org/1999/xlink">
<g id="graph0" class="graph" transform="scale(1 1) rotate(0) translate(4 184)">
<title>wiki</title>
<polygon fill="white" stroke="none" points="-4,4 -4,-184 217.181,-184 217.181,4 -4,4"/>
<!-- H -->
<g id="node1" class="node"><title>H</title>
<ellipse fill="none" stroke="black" cx="106.591" cy="-162" rx="71.4873" ry="18"/>
<text text-anchor="middle" x="106.591" y="-158.3" font-family="Times,serif" font-size="14.00">Page History</text>
</g>
<!-- F -->
<g id="node2" class="node"><title>F</title>
<ellipse fill="none" stroke="black" cx="106.591" cy="-90" rx="92.8835" ry="18"/>
<text text-anchor="middle" x="106.591" y="-86.3" font-family="Times,serif" font-size="14.00">Markup&#45;to&#45;HTML</text>
</g>
<!-- H&#45;&gt;F -->
<g id="edge1" class="edge"><title>H&#45;&gt;F</title>
<path fill="none" stroke="black" d="M106.591,-143.697C106.591,-135.983 106.591,-126.712 106.591,-118.112"/>
<polygon fill="black" stroke="black" points="110.091,-118.104 106.591,-108.104 103.091,-118.104 110.091,-118.104"/>
</g>
<!-- O -->
<g id="node3" class="node"><title>O</title>
<ellipse fill="none" stroke="black" cx="106.591" cy="-18" rx="106.681" ry="18"/>
<text text-anchor="middle" x="106.591" y="-14.3" font-family="Times,serif" font-size="14.00">Web Page (CSS etc.)</text>
</g>
<!-- F&#45;&gt;O -->
<g id="edge2" class="edge"><title>F&#45;&gt;O</title>
<path fill="none" stroke="black" d="M106.591,-71.6966C106.591,-63.9827 106.591,-54.7125 106.591,-46.1124"/>
<polygon fill="black" stroke="black" points="110.091,-46.1043 106.591,-36.1043 103.091,-46.1044 110.091,-46.1043"/>
</g>
</g>
</svg>
